<?xml version="1.0" ?><!DOCTYPE svg  PUBLIC '-//W3C//DTD SVG 1.1//EN'  'http://www.w3.org/Graphics/SVG/1.1/DTD/svg11.dtd'><svg enable-background="new 0 0 512 512" height="512px" id="Layer_1" version="1.1" viewBox="0 0 512 512" width="512px" xml:space="preserve" xmlns="http://www.w3.org/2000/svg" xmlns:xlink="http://www.w3.org/1999/xlink"><g><polyline fill="#F05336" points="0,512 512,512 512,0 0,0 0,512  "/><polyline fill="#010101" opacity="0.102" points="349,145 165,150 114,218 306,512 512,512 512,389 349,145  "/><path d="M295.802,226.195c-0.076,0.348-0.166,0.789-0.228,1.081l-2.629,12.306l2.766-12.965L295.802,226.195" fill="#5DA3C2"/><polyline fill="#5DA3C2" points="217.02,234.431 215.568,239.573 217.02,234.433 217.02,234.431  "/><path d="M133.132,219.333l110.401,116.115L190.73,219.333H133.132z M205.287,219.333l50.548,114.904l50.548-114.904   H205.287z M374.878,219.333H320.94l-52.66,116.115L374.878,219.333z M211.57,206.009h90.657l-45.328-47.345L211.57,206.009z    M334.854,154.614h-66.02l45.234,47.248L334.854,154.614z M176.816,154.614l21.455,48.771l46.695-48.771H176.816z M375.017,206.009   l-29.048-43.571l-19.167,43.571H375.017z M137.348,206.009h47.52l-18.739-42.598L137.348,206.009z M163.588,147h184.64   l45.684,68.526L254.956,364L116,217.43L163.588,147z" fill="#FFFFFF"/><path d="M133.132,219.333   l110.401,116.115L190.73,219.333H133.132z M205.287,219.333l50.548,114.904l50.548-114.904H205.287z M374.878,219.333H320.94   l-52.66,116.115L374.878,219.333z M211.57,206.009h90.657l-45.328-47.345L211.57,206.009z M334.854,154.614h-66.02l45.234,47.248   L334.854,154.614z M176.816,154.614l21.455,48.771l46.695-48.771H176.816z M375.017,206.009l-29.048-43.571l-19.167,43.571H375.017   z M137.348,206.009h47.52l-18.739-42.598L137.348,206.009z M163.588,147h184.64l45.684,68.526L254.956,364L116,217.43L163.588,147z   " fill="none" stroke="#FFFFFF" stroke-linejoin="round" stroke-miterlimit="10" stroke-width="3"/></g></svg>